<svg width="141" height="68" viewBox="0 0 141 68" fill="none" xmlns="http://www.w3.org/2000/svg">
<g filter="url(#filter0_d_3322_43)">
<path d="M17.968 31.032H9.584L8.24 35H2.512L10.64 12.536H16.976L25.104 35H19.312L17.968 31.032ZM16.56 26.808L13.776 18.584L11.024 26.808H16.56ZM32.9538 12.536V25.976C32.9538 27.32 33.2844 28.3547 33.9458 29.08C34.6071 29.8053 35.5778 30.168 36.8578 30.168C38.1378 30.168 39.1191 29.8053 39.8018 29.08C40.4844 28.3547 40.8258 27.32 40.8258 25.976V12.536H46.2978V25.944C46.2978 27.9493 45.8711 29.6453 45.0178 31.032C44.1644 32.4187 43.0124 33.464 41.5618 34.168C40.1324 34.872 38.5324 35.224 36.7618 35.224C34.9911 35.224 33.4018 34.8827 31.9938 34.2C30.6071 33.496 29.5084 32.4507 28.6978 31.064C27.8871 29.656 27.4818 27.9493 27.4818 25.944V12.536H32.9538ZM61.5963 35L56.9243 26.52H55.6123V35H50.1403V12.536H59.3243C61.0949 12.536 62.5989 12.8453 63.8363 13.464C65.0949 14.0827 66.0336 14.936 66.6523 16.024C67.2709 17.0907 67.5803 18.2853 67.5803 19.608C67.5803 21.1013 67.1536 22.4347 66.3003 23.608C65.4683 24.7813 64.2309 25.6133 62.5883 26.104L67.7723 35H61.5963ZM55.6123 22.648H59.0043C60.0069 22.648 60.7536 22.4027 61.2443 21.912C61.7563 21.4213 62.0123 20.728 62.0123 19.832C62.0123 18.9787 61.7563 18.3067 61.2443 17.816C60.7536 17.3253 60.0069 17.08 59.0043 17.08H55.6123V22.648ZM76.4873 16.92V21.464H83.8153V25.688H76.4873V30.616H84.7753V35H71.0153V12.536H84.7753V16.92H76.4873ZM93.7038 12.536V25.976C93.7038 27.32 94.0344 28.3547 94.6958 29.08C95.3571 29.8053 96.3278 30.168 97.6078 30.168C98.8878 30.168 99.8691 29.8053 100.552 29.08C101.234 28.3547 101.576 27.32 101.576 25.976V12.536H107.048V25.944C107.048 27.9493 106.621 29.6453 105.768 31.032C104.914 32.4187 103.762 33.464 102.312 34.168C100.882 34.872 99.2824 35.224 97.5118 35.224C95.7411 35.224 94.1518 34.8827 92.7438 34.2C91.3571 33.496 90.2584 32.4507 89.4478 31.064C88.6371 29.656 88.2318 27.9493 88.2318 25.944V12.536H93.7038ZM136.33 12.536V35H130.858V21.528L125.834 35H121.418L116.362 21.496V35H110.89V12.536H117.354L123.658 28.088L129.898 12.536H136.33Z" fill="#F4B720"/>
<path d="M20.63 57H16.013L8.291 45.309V57H3.674V38.046H8.291L16.013 49.791V38.046H20.63V57ZM28.5937 41.745V45.579H34.7767V49.143H28.5937V53.301H35.5867V57H23.9767V38.046H35.5867V41.745H28.5937ZM52.2192 38.046V41.745H47.1972V57H42.5802V41.745H37.5582V38.046H52.2192ZM80.6183 38.046L75.6773 57H70.0883L67.0643 44.526L63.9323 57H58.3433L53.5373 38.046H58.4783L61.2053 51.843L64.5803 38.046H69.6563L72.8963 51.843L75.6503 38.046H80.6183ZM91.8978 57.189C90.1158 57.189 88.4778 56.775 86.9838 55.947C85.5078 55.119 84.3288 53.967 83.4468 52.491C82.5828 50.997 82.1508 49.323 82.1508 47.469C82.1508 45.615 82.5828 43.95 83.4468 42.474C84.3288 40.998 85.5078 39.846 86.9838 39.018C88.4778 38.19 90.1158 37.776 91.8978 37.776C93.6798 37.776 95.3088 38.19 96.7848 39.018C98.2788 39.846 99.4488 40.998 100.295 42.474C101.159 43.95 101.591 45.615 101.591 47.469C101.591 49.323 101.159 50.997 100.295 52.491C99.4308 53.967 98.2608 55.119 96.7848 55.947C95.3088 56.775 93.6798 57.189 91.8978 57.189ZM91.8978 52.977C93.4098 52.977 94.6158 52.473 95.5158 51.465C96.4338 50.457 96.8928 49.125 96.8928 47.469C96.8928 45.795 96.4338 44.463 95.5158 43.473C94.6158 42.465 93.4098 41.961 91.8978 41.961C90.3678 41.961 89.1438 42.456 88.2258 43.446C87.3258 44.436 86.8758 45.777 86.8758 47.469C86.8758 49.143 87.3258 50.484 88.2258 51.492C89.1438 52.482 90.3678 52.977 91.8978 52.977ZM113.825 57L109.883 49.845H108.776V57H104.159V38.046H111.908C113.402 38.046 114.671 38.307 115.715 38.829C116.777 39.351 117.569 40.071 118.091 40.989C118.613 41.889 118.874 42.897 118.874 44.013C118.874 45.273 118.514 46.398 117.794 47.388C117.092 48.378 116.048 49.08 114.662 49.494L119.036 57H113.825ZM108.776 46.578H111.638C112.484 46.578 113.114 46.371 113.528 45.957C113.96 45.543 114.176 44.958 114.176 44.202C114.176 43.482 113.96 42.915 113.528 42.501C113.114 42.087 112.484 41.88 111.638 41.88H108.776V46.578ZM132.762 57L126.39 48.63V57H121.773V38.046H126.39V46.362L132.708 38.046H138.135L130.791 47.334L138.405 57H132.762Z" fill="#F4B720"/>
</g>
<defs>
<filter id="filter0_d_3322_43" x="0.511719" y="12.5361" width="139.893" height="48.6533" filterUnits="userSpaceOnUse" color-interpolation-filters="sRGB">
<feFlood flood-opacity="0" result="BackgroundImageFix"/>
<feColorMatrix in="SourceAlpha" type="matrix" values="0 0 0 0 0 0 0 0 0 0 0 0 0 0 0 0 0 0 127 0" result="hardAlpha"/>
<feOffset dy="2"/>
<feGaussianBlur stdDeviation="1"/>
<feComposite in2="hardAlpha" operator="out"/>
<feColorMatrix type="matrix" values="0 0 0 0 0 0 0 0 0 0 0 0 0 0 0 0 0 0 0.5 0"/>
<feBlend mode="normal" in2="BackgroundImageFix" result="effect1_dropShadow_3322_43"/>
<feBlend mode="normal" in="SourceGraphic" in2="effect1_dropShadow_3322_43" result="shape"/>
</filter>
</defs>
</svg>
